<mxfile host="app.diagrams.net" modified="2023-10-08T14:03:41.927Z" agent="Mozilla/5.0 (Macintosh; Intel Mac OS X 10_15_7) AppleWebKit/537.36 (KHTML, like Gecko) Chrome/117.0.0.0 Safari/537.36" version="22.0.4" etag="X-8eFI7i4ExPSK_lCs4z" type="github">
  <diagram name="第 1 页" id="yw-e2T0KG3C5G8R7vQWm">
    <mxGraphModel>
      <root>
        <mxCell id="0" />
        <mxCell id="1" parent="0" />
      </root>
    </mxGraphModel>
  </diagram>
</mxfile>
